#!OML:ASF E:\emotionWalksFemale\Project 1\Capture day 1\Session 1\Female1.ASF
:FULLY-SPECIFIED
:DEGREES
2523
root 10.0102 15.4216 -4.96671 -3.12872 -6.31292 -1.58849
lowerback 5.62217 -3.87739 1.62595
upperback -5.6245 -4.93486 1.5486
thorax -9.09869 -2.4544 1.39546
lowerneck -5.16662 -4.43906 -6.48625
upperneck 14.1109 -6.5446 7.81739
head 5.56053 -3.06113 3.08613
rclavicle -5.80451e-014 8.34896e-015
rhumerus -48.4472 -1.47192 -72.0625
rradius 39.8905
rwrist 13.6577
rhand -7.40216 -54.084
rfingers 7.12502
rthumb 18.484 -83.2258
lclavicle -5.80451e-014 8.34896e-015
lhumerus -39.6167 -0.890099 85.7555
lradius 36.2745
lwrist -14.1444
lhand -3.64801 -30.2107
lfingers 7.12502
lthumb 22.0919 -1.4527
rfemur -8.04563 9.84827 32.5168
rtibia 21.124
rfoot -11.3905 -24.5054
rtoes -1.99718
lfemur -3.39122 8.94048 -17.5684
ltibia 62.2596
lfoot 20.3151 -12.9518
ltoes -8.4705
2524
root 10.0013 15.4202 -4.90395 -3.17359 -6.46153 -1.78788
lowerback 5.59521 -3.91487 1.70574
upperback -5.52613 -4.97138 1.6452
thorax -8.9735 -2.47463 1.45016
lowerneck -5.38922 -4.42171 -6.4458
upperneck 14.4585 -6.51462 7.66586
head 5.69874 -3.04604 3.02902
rclavicle 2.49475e-014 1.07344e-014
rhumerus -48.1907 -1.15099 -72.2388
rradius 40.0931
rwrist 13.4558
rhand -6.81799 -53.299
rfingers 7.12502
rthumb 19.0459 -82.3865
lclavicle 2.49475e-014 1.07344e-014
lhumerus -39.3986 -0.772172 85.756
lradius 36.6043
lwrist -13.2913
lhand -3.21872 -30.0884
lfingers 7.12502
lthumb 22.504 -1.37976
rfemur -7.6674 9.70389 32.8282
rtibia 21.1031
rfoot -11.3747 -24.4523
rtoes -1.96726
lfemur -4.38493 8.99344 -17.1748
ltibia 63.4036
lfoot 18.7118 -14.5392
ltoes -10.1515
2525
root 9.99506 15.4176 -4.83841 -3.25748 -6.62171 -1.89017
lowerback 5.64116 -3.8584 1.85929
upperback -5.45917 -4.88494 1.57976
thorax -8.94741 -2.4444 1.28508
lowerneck -5.46678 -4.4456 -6.40944
upperneck 14.6244 -6.58765 7.84597
head 5.77364 -3.06482 3.07299
rclavicle -7.85199e-015 -1.35174e-014
rhumerus -48.1419 -1.19061 -72.4584
rradius 40.3841
rwrist 13.2941
rhand -5.97621 -53.2182
rfingers 7.12502
rthumb 19.8552 -82.224
lclavicle -7.85199e-015 -1.35174e-014
lhumerus -39.2251 -1.1 85.8329
lradius 36.9357
lwrist -12.3626
lhand -3.12434 -29.752
lfingers 7.12502
lthumb 22.5946 -1.05432
rfemur -7.24941 9.52802 33.0112
rtibia 21.0584
rfoot -11.6732 -24.0543
rtoes -0.953747
lfemur -5.23601 9.02678 -16.9363
ltibia 64.5132
lfoot 16.9301 -15.548
ltoes -9.40413
2526
root 9.98768 15.4136 -4.77825 -3.29499 -6.73171 -1.98425
lowerback 5.81886 -3.83541 1.92293
upperback -5.46228 -4.84208 1.58738
thorax -9.06075 -2.4258 1.26664
lowerneck -5.07258 -4.42484 -6.70202
upperneck 14.3193 -6.59223 8.26829
head 5.63344 -3.0681 3.26321
rclavicle -4.22417e-014 -1.74931e-014
rhumerus -48.1469 -1.07527 -72.6155
rradius 40.7633
rwrist 13.2193
rhand -6.09472 -52.6008
rfingers 7.12502
rthumb 19.7413 -81.6183
lclavicle -4.22417e-014 -1.74931e-014
lhumerus -39.1026 -1.06357 85.8911
lradius 37.2574
lwrist -11.9186
lhand -3.16384 -29.6112
lfingers 7.12502
lthumb 22.5567 -0.908918
rfemur -6.90532 9.4562 33.1842
rtibia 20.9883
rfoot -12.1309 -23.6834
rtoes 0.776629
lfemur -6.09493 8.99681 -16.7421
ltibia 65.5792
lfoot 14.7736 -16.1515
ltoes -10.5819
2527
root 9.98017 15.4095 -4.72532 -3.30011 -6.81074 -2.19655
lowerback 6.04377 -3.85283 2.00428
upperback -5.48094 -4.84151 1.69883
thorax -9.21164 -2.42472 1.35839
lowerneck -5.07178 -4.446 -6.8053
upperneck 14.4047 -6.61147 8.23245
head 5.66373 -3.08458 3.26749
rclavicle 1.48095e-014 4.77083e-015
rhumerus -48.1393 -0.754885 -72.7503
rradius 41.3184
rwrist 13.3394
rhand -6.69191 -51.7271
rfingers 7.12502
rthumb 19.1671 -80.8026
lclavicle 1.48095e-014 4.77083e-015
lhumerus -39.1075 -0.698413 85.8999
lradius 37.8019
lwrist -11.7342
lhand -3.12672 -29.8001
lfingers 7.12502
lthumb 22.5923 -1.10212
rfemur -6.66167 9.47034 33.4982
rtibia 20.9466
rfoot -12.3938 -23.5419
rtoes 2.38536
lfemur -7.09955 8.93386 -16.4199
ltibia 66.6045
lfoot 12.1872 -16.2856
ltoes -13.9033
2528
root 9.97396 15.408 -4.66542 -3.33997 -7.05961 -2.40608
lowerback 6.14093 -3.81781 2.1766
upperback -5.47953 -4.76819 1.76529
thorax -9.27716 -2.39689 1.33102
lowerneck -4.96528 -4.40364 -6.90226
upperneck 14.415 -6.56848 8.35075
head 5.65173 -3.06409 3.32668
rclavicle -2.33572e-014 -2.0276e-014
rhumerus -48.0245 -0.614001 -72.8525
rradius 41.599
rwrist 13.6061
rhand -7.19472 -52.3315
rfingers 7.12502
rthumb 18.6835 -81.4542
lclavicle -2.33572e-014 -2.0276e-014
lhumerus -39.259 -0.532899 85.9326
lradius 38.5709
lwrist -11.4629
lhand -2.66937 -29.3307
lfingers 7.12502
lthumb 23.0312 -0.686797
rfemur -6.42133 9.54957 33.8283
rtibia 21.0258
rfoot -12.1604 -23.425
rtoes 3.56603
lfemur -8.02384 9.05664 -16.0992
ltibia 67.5736
lfoot 10.4805 -15.3692
ltoes -13.8287
2529
root 9.96939 15.4075 -4.59758 -3.41797 -7.42421 -2.36824
lowerback 5.97375 -3.69666 2.21863
upperback -5.35423 -4.61576 1.67189
thorax -9.05196 -2.33036 1.16743
lowerneck -4.91144 -4.42236 -6.79182
upperneck 14.3725 -6.61404 8.40388
head 5.63088 -3.07899 3.32295
rclavicle -5.1684e-014 1.11319e-014
rhumerus -47.8362 -0.678898 -73.0334
rradius 41.7288
rwrist 13.1755
rhand -7.25692 -52.6976
rfingers 7.12502
rthumb 18.6237 -81.826
lclavicle -5.1684e-014 1.11319e-014
lhumerus -39.1381 -0.811107 85.9864
lradius 39.1059
lwrist -11.0734
lhand -2.23317 -28.5722
lfingers 7.12502
lthumb 23.4497 0.0188291
rfemur -6.07518 9.73851 33.8828
rtibia 21.1052
rfoot -11.9307 -23.2379
rtoes 5.24866
lfemur -8.77988 9.26353 -16.1053
ltibia 68.3849
lfoot 8.39798 -14.4717
ltoes -17.8556
2530
root 9.95936 15.402 -4.56223 -3.07331 -7.07509 -2.24281
lowerback 5.92863 -3.78057 1.96374
upperback -5.46904 -4.76035 1.60121
thorax -9.13527 -2.38737 1.25653
lowerneck -4.96979 -4.49077 -6.5365
upperneck 14.4451 -6.70922 8.22199
head 5.65704 -3.12136 3.2146
rclavicle 1.95803e-014 -1.19271e-015
rhumerus -47.8653 -0.575327 -73.2917
rradius 42.1568
rwrist 12.3211
rhand -7.18036 -52.0045
rfingers 7.12502
rthumb 18.6974 -81.1259
lclavicle 1.95803e-014 -1.19271e-015
lhumerus -38.9133 -1.11629 86.0366
lradius 39.3903
lwrist -10.6943
lhand -2.22061 -28.5104
lfingers 7.12502
lthumb 23.4618 0.079075
rfemur -6.33396 9.93211 33.754
rtibia 21.1701
rfoot -12.0762 -23.6147
rtoes 6.83692
lfemur -10.4168 8.80518 -16.3505
ltibia 69.2136
lfoot 6.67983 -13.5131
ltoes -23.4219
2531
root 9.95733 15.3921 -4.50418 -3.29332 -7.42363 -2.32078
lowerback 6.2299 -3.68407 2.06518
upperback -5.40751 -4.61265 1.58965
thorax -9.25537 -2.32026 1.18735
lowerneck -5.36166 -4.55677 -6.29221
upperneck 14.9091 -6.7774 7.82062
head 5.85389 -3.15337 3.03314
rclavicle -5.71506e-014 0
rhumerus -48.0138 -0.328138 -73.4612
rradius 42.7842
rwrist 12.343
rhand -6.37526 -51.6567
rfingers 7.12502
rthumb 19.4716 -80.7017
lclavicle -5.71506e-014 0
lhumerus -38.9421 -1.10835 86.1126
lradius 39.8502
lwrist -10.4501
lhand -1.99801 -28.5877
lfingers 7.12502
lthumb 23.6753 -0.0257137
rfemur -5.86927 10.2192 33.9847
rtibia 21.2625
rfoot -12.15 -23.6859
rtoes 7.35211
lfemur -11.0741 8.94924 -16.1813
ltibia 69.8326
lfoot 5.13102 -12.4276
ltoes -25.5568
2532
root 9.95209 15.3859 -4.45222 -3.39688 -7.65611 -2.52462
lowerback 6.51619 -3.61773 2.27875
upperback -5.33459 -4.49217 1.59253
thorax -9.3622 -2.27337 1.07265
lowerneck -5.10133 -4.47557 -6.48024
upperneck 14.5566 -6.70359 8.27339
head 5.71374 -3.10787 3.21935
rclavicle 1.49089e-014 1.03368e-014
rhumerus -47.9317 -0.32665 -73.6029
rradius 43.2199
rwrist 12.7818
rhand -4.04447 -52.2378
rfingers 7.12502
rthumb 21.7113 -81.0403
lclavicle 1.49089e-014 1.03368e-014
lhumerus -38.9771 -1.14564 86.1601
lradius 40.4595
lwrist -10.2636
lhand -1.66895 -28.382
lfingers 7.12502
lthumb 23.9909 0.138815
rfemur -5.57911 10.4152 34.3358
rtibia 21.4204
rfoot -12.3772 -23.6803
rtoes 8.83
lfemur -11.9346 8.94745 -15.8815
ltibia 70.3795
lfoot 3.70605 -11.0929
ltoes -25.0268
